<svg width="18" height="19" viewBox="0 0 18 19" fill="none" xmlns="http://www.w3.org/2000/svg">
<path fill-rule="evenodd" clip-rule="evenodd" d="M15.2427 6.71315C14.935 5.49074 13.873 4.61992 12.6399 4.52292C12.5777 4.32762 12.5065 4.1344 12.4251 3.94593C12.1602 3.3327 11.772 2.73495 11.2001 2.28878C10.6176 1.83427 9.88503 1.56946 9.00002 1.56946C8.115 1.56946 7.38245 1.83427 6.79988 2.28878C6.228 2.73495 5.83982 3.3327 5.5749 3.94593C5.49348 4.1344 5.42231 4.32762 5.36016 4.52291C4.12706 4.61991 3.065 5.49074 2.75733 6.71315C2.02347 9.62879 1.66395 11.7743 1.64018 13.3487C1.61658 14.9118 1.92169 16.0614 2.68953 16.8055C3.44727 17.5399 4.49349 17.7157 5.51636 17.7546C6.04045 17.7745 6.60585 17.7589 7.18271 17.7397L7.39419 17.7326C7.91219 17.715 8.44487 17.6969 9.00001 17.6969C9.55514 17.6969 10.0877 17.715 10.6057 17.7326L10.8173 17.7397C11.3942 17.7589 11.9596 17.7745 12.4837 17.7546C13.5065 17.7157 14.5528 17.5399 15.3105 16.8055C16.0783 16.0614 16.3834 14.9118 16.3598 13.3487C16.3361 11.7743 15.9765 9.62879 15.2427 6.71315ZM6.42362 7.45834C6.42363 7.03274 6.4499 6.51557 6.53088 5.98611H11.4691C11.5501 6.51557 11.5764 7.03274 11.5764 7.45833C11.5764 7.86488 11.906 8.19444 12.3125 8.19444C12.719 8.19444 13.0486 7.86488 13.0486 7.45833C13.0486 7.07955 13.0306 6.6081 12.9699 6.09828C13.3815 6.27012 13.7026 6.62603 13.815 7.07249C14.541 9.95702 14.8666 11.9701 14.8878 13.371C14.9091 14.7832 14.6189 15.4256 14.2859 15.7484C13.9427 16.0809 13.3824 16.2471 12.4277 16.2834C11.963 16.3011 11.4469 16.2876 10.8662 16.2683L10.6569 16.2613C10.1408 16.2437 9.58192 16.2247 9.00001 16.2247C8.41806 16.2247 7.85928 16.2437 7.34314 16.2613L7.13379 16.2683C6.55316 16.2876 6.037 16.3011 5.5723 16.2834C4.61758 16.2471 4.05728 16.0809 3.71412 15.7484C3.38107 15.4256 3.09091 14.7832 3.11223 13.371C3.13339 11.9701 3.45899 9.95702 4.18502 7.07249C4.29739 6.62603 4.61854 6.27011 5.03012 6.09828C4.96942 6.60809 4.95141 7.07954 4.9514 7.45833C4.9514 7.86487 5.28097 8.19444 5.68751 8.19444C6.09405 8.19445 6.42362 7.86488 6.42362 7.45834ZM10.2946 3.44952C10.6133 3.69822 10.8688 4.06104 11.0667 4.5139H6.9333C7.13118 4.06104 7.38671 3.69822 7.70547 3.44952C8.01728 3.20626 8.42754 3.04168 9.00002 3.04168C9.57249 3.04168 9.98275 3.20626 10.2946 3.44952Z" fill="#475367"/>
</svg>
