<svg width="21" height="20" viewBox="0 0 21 20" fill="none" xmlns="http://www.w3.org/2000/svg">
<path fill-rule="evenodd" clip-rule="evenodd" d="M9.66663 1.66666C5.52449 1.66666 2.16663 5.02452 2.16663 9.16666C2.16663 13.3088 5.52449 16.6667 9.66663 16.6667C11.4375 16.6667 13.065 16.0529 14.348 15.0266L17.4107 18.0892C17.7361 18.4147 18.2638 18.4147 18.5892 18.0892C18.9147 17.7638 18.9147 17.2362 18.5892 16.9107L15.5265 13.8481C16.5529 12.565 17.1666 10.9375 17.1666 9.16666C17.1666 5.02452 13.8088 1.66666 9.66663 1.66666ZM3.83329 9.16666C3.83329 5.945 6.44497 3.33332 9.66663 3.33332C12.8883 3.33332 15.5 5.945 15.5 9.16666C15.5 12.3883 12.8883 15 9.66663 15C6.44497 15 3.83329 12.3883 3.83329 9.16666Z" fill="#101928"/>
</svg>
