<svg width="23" height="23" viewBox="0 0 23 23" fill="none" xmlns="http://www.w3.org/2000/svg">
<path d="M6.96228 5.67153C6.59604 5.30529 6.00225 5.30529 5.63601 5.67153C5.26977 6.03777 5.26977 6.63157 5.63601 6.99781L10.278 11.6398L5.63601 16.2817C5.26977 16.648 5.26977 17.2418 5.63601 17.608C6.00225 17.9743 6.59604 17.9743 6.96228 17.608L11.6042 12.966L16.2462 17.608C16.6125 17.9743 17.2062 17.9743 17.5725 17.608C17.9387 17.2418 17.9387 16.648 17.5725 16.2817L12.9305 11.6398L17.5725 6.99781C17.9387 6.63157 17.9387 6.03777 17.5725 5.67153C17.2062 5.30529 16.6125 5.30529 16.2462 5.67153L11.6042 10.3135L6.96228 5.67153Z" fill="#475367"/>
</svg>
