<svg width="21" height="20" viewBox="0 0 21 20" fill="none" xmlns="http://www.w3.org/2000/svg">
<path fill-rule="evenodd" clip-rule="evenodd" d="M2.58333 0.833344C2.1231 0.833344 1.75 1.20644 1.75 1.66668C1.75 2.12691 2.1231 2.50001 2.58333 2.50001C3.19035 2.50001 3.72066 2.94108 3.82984 3.56168L4.40141 6.81059L4.40192 6.81346L4.76813 8.86007C4.99716 10.1401 5.18006 11.1623 5.4113 11.9743C5.64977 12.8117 5.95884 13.5007 6.48376 14.083C6.8443 14.483 7.26614 14.8254 7.73364 15.0986C8.41088 15.4944 9.15747 15.6686 10.0451 15.7521C10.9099 15.8334 11.9817 15.8334 13.3319 15.8333H13.7424C14.3429 15.8334 14.838 15.8334 15.2459 15.8037C15.6708 15.7728 16.0575 15.7069 16.4327 15.5469C16.9799 15.3136 17.4591 14.9469 17.8221 14.479C18.0727 14.156 18.2291 13.7998 18.3574 13.4019C18.4798 13.0222 18.5915 12.5542 18.7256 11.9919L18.7425 11.9209C18.9465 11.0662 19.1131 10.3679 19.1937 9.79773C19.2767 9.21101 19.2858 8.65917 19.0969 8.12727C18.8313 7.37952 18.3086 6.75 17.6246 6.33989C17.1428 6.05099 16.598 5.93795 15.9935 5.88501C15.4033 5.83332 14.6638 5.83333 13.7512 5.83334H5.92175L5.4713 3.27291C5.22412 1.86788 4.01195 0.833344 2.58333 0.833344ZM13.7122 7.50001C14.673 7.50001 15.3393 7.50076 15.8481 7.54532C16.351 7.58936 16.6024 7.67028 16.7676 7.7693C17.128 7.9854 17.3934 8.31078 17.5264 8.6851C17.5843 8.84829 17.6108 9.0884 17.5435 9.56426C17.4751 10.0477 17.3276 10.6697 17.1118 11.5743C16.9684 12.1752 16.8713 12.5798 16.7711 12.8905C16.6746 13.1898 16.5921 13.3454 16.5052 13.4575C16.3193 13.6971 16.07 13.8897 15.7791 14.0137C15.639 14.0735 15.455 14.1174 15.1249 14.1414C14.7847 14.1662 14.3504 14.1667 13.7122 14.1667H13.374C11.9724 14.1667 10.9788 14.1658 10.2011 14.0927C9.43732 14.0209 8.95978 13.8847 8.5746 13.6596C8.25362 13.472 7.96605 13.2382 7.72168 12.9671C7.43152 12.6452 7.21522 12.2236 7.01424 11.5179C6.80866 10.796 6.63956 9.85651 6.40092 8.52283L6.2179 7.50001H13.7122Z" fill="#101928"/>
<path d="M9.25 17.2917C9.25 17.867 8.78363 18.3333 8.20833 18.3333C7.63304 18.3333 7.16667 17.867 7.16667 17.2917C7.16667 16.7164 7.63304 16.25 8.20833 16.25C8.78363 16.25 9.25 16.7164 9.25 17.2917Z" fill="#101928"/>
<path d="M15.7083 18.3333C16.2836 18.3333 16.75 17.867 16.75 17.2917C16.75 16.7164 16.2836 16.25 15.7083 16.25C15.133 16.25 14.6667 16.7164 14.6667 17.2917C14.6667 17.867 15.133 18.3333 15.7083 18.3333Z" fill="#101928"/>
</svg>
