<svg width="17" height="17" viewBox="0 0 17 17" fill="none" xmlns="http://www.w3.org/2000/svg">
<path d="M8.937 2.56432C8.80767 2.43499 8.63226 2.36234 8.44937 2.36234C8.26647 2.36234 8.09106 2.43499 7.96173 2.56432L3.82405 6.702C3.55474 6.97131 3.55474 7.40795 3.82405 7.67726C4.09336 7.94657 4.53 7.94657 4.79931 7.67726L8.44937 4.02721L12.0994 7.67726C12.3687 7.94657 12.8054 7.94657 13.0747 7.67726C13.344 7.40795 13.344 6.97131 13.0747 6.702L8.937 2.56432Z" fill="#667185"/>
<path d="M8.937 15.263C8.80767 15.3923 8.63226 15.465 8.44937 15.465C8.26647 15.465 8.09106 15.3923 7.96173 15.263L3.82405 11.1253C3.55474 10.856 3.55474 10.4194 3.82405 10.1501C4.09336 9.88076 4.53 9.88076 4.79931 10.1501L8.44937 13.8001L12.0994 10.1501C12.3687 9.88076 12.8054 9.88076 13.0747 10.1501C13.344 10.4194 13.344 10.856 13.0747 11.1253L8.937 15.263Z" fill="#667185"/>
</svg>
