<svg width="17" height="17" viewBox="0 0 17 17" fill="none" xmlns="http://www.w3.org/2000/svg">
<path d="M3.14246 4.43119C3.14246 4.05033 3.45121 3.74158 3.83207 3.74158H13.4867C13.8675 3.74158 14.1763 4.05033 14.1763 4.43119C14.1763 4.81205 13.8675 5.1208 13.4867 5.1208H3.83207C3.45121 5.1208 3.14246 4.81205 3.14246 4.43119Z" fill="#667185"/>
<path d="M4.52168 8.56887C4.52168 8.18801 4.83043 7.87926 5.2113 7.87926H12.1074C12.4883 7.87926 12.797 8.18801 12.797 8.56887C12.797 8.94973 12.4883 9.25849 12.1074 9.25849H5.2113C4.83043 9.25849 4.52168 8.94973 4.52168 8.56887Z" fill="#667185"/>
<path d="M6.59052 12.0169C6.20966 12.0169 5.90091 12.3257 5.90091 12.7066C5.90091 13.0874 6.20966 13.3962 6.59052 13.3962H10.7282C11.1091 13.3962 11.4178 13.0874 11.4178 12.7066C11.4178 12.3257 11.1091 12.0169 10.7282 12.0169H6.59052Z" fill="#667185"/>
</svg>
