<svg width="21" height="20" viewBox="0 0 21 20" fill="none" xmlns="http://www.w3.org/2000/svg">
<path fill-rule="evenodd" clip-rule="evenodd" d="M9.21524 2.27595C9.74882 2.54617 10.1832 2.86246 10.5001 3.12838C10.8169 2.86246 11.2513 2.54618 11.7848 2.27595C12.9939 1.66358 14.7341 1.28483 16.6911 2.27594C17.9412 2.90904 18.7869 3.86701 19.2474 5.03009C19.7017 6.17754 19.7634 7.47657 19.5447 8.79454C19.1721 11.04 17.6374 13.0437 16.0611 14.5876C14.4651 16.1507 12.7152 17.3494 11.7283 17.9745C10.9729 18.4529 10.0272 18.4529 9.27183 17.9745C8.28491 17.3495 6.53497 16.1507 4.93899 14.5876C3.36269 13.0438 1.82789 11.04 1.45531 8.79454C1.23662 7.47657 1.29835 6.17754 1.75265 5.03009C2.21315 3.86701 3.05878 2.90905 4.30887 2.27594C6.26587 1.28483 8.0061 1.66358 9.21524 2.27595ZM9.86517 4.82121C10.0235 5.00743 10.2556 5.11478 10.5001 5.11478C10.7441 5.11477 10.9759 5.00779 11.1342 4.82217C11.1343 4.82196 11.1345 4.82174 11.1347 4.82153C11.1349 4.82128 11.1351 4.82103 11.1353 4.82078L11.148 4.80658C11.161 4.79219 11.1827 4.76849 11.2129 4.73724C11.2734 4.67461 11.3669 4.58252 11.49 4.47481C11.7381 4.25778 12.0962 3.9865 12.5379 3.7628C13.4054 3.32344 14.5724 3.07115 15.9381 3.7628C16.8298 4.21438 17.3892 4.86426 17.6977 5.64363C18.0125 6.43863 18.0839 7.41664 17.9005 8.52173C17.616 10.2365 16.3932 11.9294 14.8949 13.3969C13.4163 14.8451 11.7746 15.9723 10.8365 16.5665C10.6256 16.7001 10.3745 16.7001 10.1636 16.5665C9.22549 15.9723 7.58383 14.8451 6.10518 13.3969C4.60686 11.9294 3.38402 10.2365 3.09949 8.52173C2.91613 7.41664 2.98752 6.43863 3.30228 5.64363C3.61085 4.86426 4.17023 4.21438 5.06189 3.7628C6.42758 3.07115 7.5947 3.32344 8.46223 3.7628C8.90393 3.9865 9.262 4.25779 9.51011 4.47483C9.63323 4.58253 9.72671 4.67462 9.78723 4.73726C9.81742 4.7685 9.8392 4.79221 9.85217 4.8066L9.86517 4.82121Z" fill="#101928"/>
</svg>
