<svg width="85" height="46" viewBox="0 0 85 46" fill="none" xmlns="http://www.w3.org/2000/svg">
<g clip-path="url(#clip0_94_2672)">
<path d="M8.94007 15.1657C8.95199 15.2873 8.96391 15.4685 8.97703 15.7117C8.98895 15.9549 8.99849 16.216 9.00445 16.4962C9.01041 16.7764 9.01637 17.0661 9.02233 17.3642C9.02829 17.6623 9.03187 17.9341 9.03187 18.1785C9.03187 18.8009 9.02233 19.3469 9.00445 19.8179C8.98656 20.2888 8.94603 20.6667 8.88522 20.9517C8.95795 20.9469 9.03425 20.9386 9.11414 20.9267C9.19282 20.9147 9.27628 20.9064 9.36093 20.9004C9.47062 20.8933 9.57792 20.9195 9.68165 20.9791C9.78538 21.0387 9.87957 21.1246 9.96541 21.2343C10.0513 21.344 10.1204 21.4703 10.1764 21.6134C10.2313 21.7565 10.2587 21.9007 10.2587 22.0474C10.2587 22.3526 10.1609 22.6519 9.96541 22.9464C9.76988 23.2408 9.5052 23.5055 9.16898 23.7416C8.83395 23.9777 8.44647 24.172 8.00653 24.3246C7.56777 24.4772 7.10398 24.569 6.61516 24.6036C6.32186 24.6239 5.9928 24.6215 5.62677 24.5988C5.26075 24.575 4.91619 24.5046 4.59308 24.3866C4.26998 24.2686 3.99815 24.0945 3.77877 23.8656C3.5594 23.6367 3.44971 23.3326 3.44971 22.9547C3.44971 22.8569 3.45925 22.7258 3.47713 22.5589C3.49501 22.3931 3.53197 22.2262 3.58682 22.0569C3.64166 21.8888 3.71797 21.7398 3.81573 21.611C3.9135 21.4823 4.04107 21.4131 4.19964 21.4012C4.28548 21.3952 4.37013 21.3869 4.45597 21.375C4.54182 21.363 4.62647 21.3535 4.71231 21.3475C4.70039 21.1043 4.69085 20.8086 4.68489 20.4617C4.67893 20.1147 4.67297 19.7642 4.667 19.4113C4.66104 19.0584 4.65747 18.7257 4.65747 18.4146C4.65747 18.1034 4.65747 17.8745 4.65747 17.7278C4.65747 17.5454 4.66104 17.3403 4.667 17.1138C4.67297 16.8873 4.67893 16.6679 4.68489 16.4533C4.69085 16.2399 4.69681 16.0467 4.70277 15.8751C4.70873 15.7034 4.71231 15.5758 4.71231 15.49L4.49293 15.5055C4.40709 15.5114 4.3129 15.5269 4.20918 15.552C4.10545 15.577 4.0053 15.5388 3.90753 15.4351C3.78592 15.3087 3.68458 15.1144 3.60589 14.8521C3.5272 14.5886 3.48667 14.3168 3.48667 14.0366C3.48667 13.5847 3.61185 13.2294 3.86223 12.9683C4.1126 12.7072 4.42021 12.5057 4.78623 12.365C5.15225 12.2244 5.53974 12.1302 5.94868 12.0837C6.35763 12.0372 6.72008 12.0038 7.03722 11.9811C7.62262 11.9406 8.11144 11.9466 8.50131 11.999C8.89118 12.0515 9.20832 12.1516 9.45274 12.2995C9.69715 12.4473 9.87003 12.6428 9.97375 12.8861C10.0775 13.1293 10.1287 13.4214 10.1287 13.7624C10.1287 14.1773 10.0703 14.5099 9.95468 14.7627C9.83903 15.0142 9.69596 15.1466 9.52427 15.1585L8.93887 15.1621L8.94007 15.1657ZM9.659 17.9341C9.659 16.8479 9.78657 15.8846 10.0429 15.044C10.2992 14.2035 10.6557 13.4858 11.1136 12.8932C11.5714 12.3007 12.1258 11.8381 12.7791 11.5066C13.4313 11.1752 14.149 10.982 14.9288 10.9296C16.71 10.8068 17.9941 11.286 18.781 12.3674C19.5679 13.4476 19.9613 15.1287 19.9613 17.4107C19.9613 19.6068 19.5405 21.2891 18.6987 22.4563C17.857 23.6247 16.6492 24.2626 15.0754 24.3699C14.2575 24.4259 13.5136 24.3246 12.8423 24.0659C12.1711 23.8072 11.6012 23.4042 11.1314 22.8569C10.6617 22.3097 10.2992 21.6206 10.0429 20.7907C9.78657 19.9609 9.659 19.0083 9.659 17.9353V17.9341ZM14.9288 15.1573C14.7583 15.1692 14.6176 15.261 14.5079 15.4339C14.3982 15.6056 14.31 15.8286 14.242 16.1016C14.1753 16.3746 14.1288 16.6763 14.1049 17.0077C14.0799 17.3392 14.068 17.6694 14.068 17.9985C14.068 18.7055 14.1622 19.2301 14.3517 19.5711C14.5413 19.912 14.7762 20.073 15.0564 20.0539C15.3365 20.0349 15.5476 19.825 15.6871 19.4244C15.8278 19.0238 15.8981 18.324 15.8981 17.3237C15.8981 16.8479 15.8707 16.4688 15.8158 16.1862C15.761 15.9037 15.6906 15.6819 15.6048 15.5233C15.519 15.3648 15.4188 15.2622 15.3032 15.2145C15.1875 15.168 15.0623 15.149 14.9276 15.1585L14.9288 15.1573ZM19.2162 19.1085C19.2162 18.2178 19.2376 17.4083 19.2805 16.6798C19.3235 15.9514 19.4701 15.3183 19.7193 14.7829C19.9697 14.2476 20.3595 13.8208 20.8901 13.5036C21.4206 13.1865 22.1801 12.9946 23.1685 12.9266C23.9733 12.8717 24.7113 12.8753 25.3825 12.9397C26.0538 13.0029 26.6296 13.1555 27.1113 13.3975C27.593 13.6384 27.9685 13.9889 28.2368 14.4455C28.5051 14.9034 28.6398 15.4911 28.6398 16.2113C28.6398 16.9552 28.579 17.5263 28.4574 17.9257C28.3358 18.324 28.1986 18.6268 28.046 18.8319C27.8934 19.0369 27.7563 19.1836 27.6347 19.2718C27.5131 19.36 27.4523 19.4709 27.4523 19.6044C27.4523 19.8119 27.531 20.0504 27.6907 20.3198C27.8493 20.5893 28.0198 20.898 28.2034 21.245C28.3858 21.5919 28.5575 21.9806 28.7161 22.4086C28.8747 22.8367 28.9545 23.3076 28.9545 23.8191C28.9545 24.0635 28.8818 24.2781 28.7352 24.4653C28.5885 24.6525 28.4061 24.8146 28.1867 24.9517C27.9673 25.0888 27.7349 25.1926 27.4916 25.2641C27.2472 25.3356 27.0338 25.3774 26.8514 25.3905C26.2898 25.4286 25.8296 25.4024 25.4696 25.3118C25.1095 25.2212 24.8508 25.0459 24.6922 24.7884C24.6314 24.6954 24.5825 24.5392 24.5456 24.3222C24.5086 24.1052 24.4788 23.8596 24.4538 23.5878C24.4287 23.3148 24.3989 23.037 24.3619 22.752C24.325 22.4683 24.2833 22.2083 24.2344 21.9735C24.1855 21.7386 24.1211 21.5478 24.0424 21.4012C23.9625 21.2545 23.8624 21.1842 23.7408 21.1925C23.6311 21.1997 23.5643 21.2843 23.5393 21.4441C23.5154 21.6039 23.5119 21.797 23.5298 22.0212C23.5476 22.2453 23.5727 22.4754 23.6025 22.7115C23.6335 22.9475 23.6478 23.1383 23.6478 23.285C23.6478 23.4674 23.6263 23.6891 23.5834 23.9479C23.5405 24.2066 23.4558 24.4593 23.3271 24.7061C23.1983 24.9529 23.0123 25.1699 22.7691 25.3571C22.5247 25.5443 22.2075 25.6516 21.8177 25.679C21.4397 25.7052 21.0737 25.6266 20.7196 25.4429C20.3655 25.2593 20.1223 24.9839 19.9875 24.6143C19.8409 24.209 19.7193 23.7785 19.6215 23.3219C19.5238 22.8653 19.4451 22.3943 19.3831 21.9103C19.3223 21.4262 19.2793 20.9481 19.2555 20.4736C19.2305 19.9991 19.2185 19.5424 19.2185 19.1037L19.2162 19.1085ZM24.139 16.3555C23.8946 16.3722 23.6967 16.4807 23.5441 16.6798C23.3915 16.8789 23.3151 17.0709 23.3151 17.2533C23.3151 17.5335 23.395 17.7421 23.5536 17.8769C23.7122 18.0128 23.9017 18.0724 24.1211 18.0581C24.3524 18.0426 24.5515 17.9651 24.7161 17.8256C24.8806 17.6861 24.9628 17.4214 24.9628 17.0304C24.9628 16.8956 24.9319 16.7824 24.871 16.6894C24.8102 16.5964 24.7399 16.5248 24.66 16.4748C24.5813 16.4247 24.4919 16.3913 24.3941 16.3734C24.2964 16.3555 24.2117 16.3496 24.1378 16.3543L24.139 16.3555ZM31.0255 12.2959C32.1355 12.2196 33.1298 12.2613 34.0085 12.4199C34.8872 12.5796 35.6312 12.8849 36.2404 13.3367C36.8509 13.7886 37.3171 14.4062 37.6402 15.1895C37.9633 15.9728 38.1254 16.9493 38.1254 18.1213C38.1254 19.2432 37.9668 20.2268 37.6497 21.0721C37.3326 21.9174 36.8723 22.6256 36.2679 23.1979C35.6646 23.7702 34.9254 24.2137 34.0538 24.5297C33.1811 24.8456 32.1903 25.0423 31.0803 25.1187C30.1039 25.1854 29.3718 24.7657 28.8842 23.8608C28.3966 22.9547 28.1521 21.611 28.1521 19.8298C28.1521 19.4638 28.1557 19.0453 28.1617 18.5755C28.1676 18.1058 28.1891 17.6253 28.2261 17.1341C28.263 16.6441 28.3238 16.154 28.4085 15.6664C28.4943 15.1788 28.6159 14.7281 28.7745 14.3144C28.982 13.7516 29.2741 13.2831 29.6532 12.9087C30.0311 12.5355 30.489 12.3305 31.0255 12.2935V12.2959ZM32.8008 16.4557C32.6422 16.4664 32.5146 16.5391 32.4169 16.6739C32.3191 16.8086 32.2464 16.9779 32.1975 17.183C32.1486 17.388 32.1188 17.6217 32.1057 17.8852C32.0938 18.1487 32.0878 18.4205 32.0878 18.7007C32.0878 19.2861 32.1426 19.7797 32.2523 20.1803C32.362 20.5809 32.5325 20.7979 32.765 20.8313C32.8139 20.8396 32.8866 20.8408 32.9844 20.8349C33.2157 20.8194 33.4052 20.7323 33.5519 20.5761C33.6985 20.42 33.8142 20.2292 33.9 20.0027C33.9859 19.7773 34.0467 19.5353 34.0825 19.2766C34.1194 19.0179 34.1373 18.7794 34.1373 18.5588C34.1373 18.2787 34.1099 18.0092 34.055 17.7505C34.0002 17.4918 33.9179 17.2652 33.8082 17.0721C33.6985 16.8777 33.5579 16.7228 33.3874 16.6071C33.2169 16.4903 33.0213 16.4402 32.802 16.4557H32.8008ZM41.0596 22.1285C41.0715 22.4325 41.2181 22.6089 41.4983 22.6566C41.7785 22.7043 42.1207 22.7151 42.5225 22.6864C42.8646 22.6626 43.2235 22.6387 43.6026 22.6125C43.9806 22.5863 44.3252 22.6113 44.6363 22.6876C44.9475 22.7639 45.2062 22.9106 45.4137 23.1288C45.6211 23.3458 45.7249 23.6927 45.7249 24.1684C45.7249 25.7052 44.529 26.5565 42.1385 26.7199C41.2718 26.7795 40.5373 26.7199 39.9341 26.5422C39.3296 26.3646 38.842 26.0474 38.47 25.5908C38.098 25.1341 37.8297 24.5189 37.6652 23.7428C37.5007 22.9678 37.4184 22.0116 37.4184 20.8778C37.4184 20.2673 37.4399 19.6557 37.4828 19.0429C37.5257 18.4301 37.5829 17.859 37.6568 17.3296C37.7296 16.8002 37.819 16.3305 37.9227 15.9204C38.0264 15.5102 38.1338 15.205 38.2434 15.0023C38.4509 14.647 38.8014 14.3513 39.2962 14.1153C39.7898 13.8804 40.3609 13.7397 41.0071 13.6956C41.3731 13.6706 41.7904 13.6753 42.2602 13.7099C42.7299 13.7445 43.1842 13.7993 43.6229 13.8721C44.0617 13.946 44.4611 14.0306 44.8211 14.1284C45.1812 14.2262 45.434 14.3299 45.5806 14.442C45.8739 14.6542 46.0194 15.1072 46.0194 15.8023C46.0194 16.4616 45.8822 16.9552 45.608 17.2855C45.3338 17.6158 44.9034 17.8006 44.318 17.8411C43.8912 17.8709 43.4548 17.8423 43.0101 17.7576C42.5642 17.6718 42.129 17.6444 41.7022 17.6742C41.5067 17.6873 41.3755 17.7183 41.3087 17.7648C41.242 17.8125 41.2086 17.8912 41.2086 18.0009C41.2086 18.2322 41.3087 18.3871 41.5102 18.4646C41.7117 18.5421 41.9621 18.5922 42.2602 18.6149C42.5594 18.6375 42.8825 18.6483 43.2295 18.6494C43.5776 18.6506 43.9007 18.6852 44.2 18.7567C44.4992 18.8283 44.7484 18.9594 44.9499 19.1538C45.1514 19.3469 45.2515 19.639 45.2515 20.0301C45.2515 20.5547 45.0715 20.9755 44.7114 21.2927C44.3514 21.6098 43.8542 21.7911 43.2199 21.834C43.0244 21.8471 42.8325 21.8519 42.6441 21.8459C42.4545 21.8399 42.2625 21.8447 42.0682 21.8578C41.6414 21.8876 41.3052 21.977 41.0619 22.1285H41.0596ZM44.9809 15.509C44.9809 14.6184 45.0024 13.8089 45.0453 13.0804C45.0882 12.3519 45.2349 11.7188 45.484 11.1835C45.7344 10.6482 46.1243 10.2214 46.6548 9.90421C47.1854 9.58707 47.9449 9.39512 48.9332 9.32716C49.738 9.27232 50.476 9.27589 51.1473 9.34027C51.8185 9.40346 52.3944 9.55607 52.876 9.7981C53.3577 10.0389 53.7333 10.3883 54.0015 10.8461C54.2698 11.3039 54.4045 11.8917 54.4045 12.6118C54.4045 13.3558 54.3437 13.9269 54.2221 14.3263C54.1005 14.7245 53.9634 15.0274 53.8108 15.2324C53.6582 15.4375 53.5211 15.5841 53.3995 15.6724C53.2778 15.7606 53.217 15.8715 53.217 16.005C53.217 16.2125 53.2957 16.4509 53.4555 16.7204C53.6141 16.9898 53.7845 17.2986 53.9682 17.6456C54.1506 17.9925 54.3223 18.3812 54.4808 18.8092C54.6394 19.2372 54.7193 19.7082 54.7193 20.2197C54.7193 20.4641 54.6466 20.6787 54.4999 20.8659C54.3533 21.053 54.1708 21.2152 53.9515 21.3523C53.7321 21.4894 53.4996 21.5931 53.2564 21.6659C53.012 21.7374 52.7985 21.7791 52.6161 21.7922C52.0546 21.8304 51.5944 21.8042 51.2343 21.7136C50.8742 21.6217 50.6155 21.4477 50.457 21.1902C50.3961 21.0972 50.3473 20.941 50.3103 20.724C50.2733 20.507 50.2435 20.2626 50.2185 19.9895C50.1935 19.7165 50.1637 19.4387 50.1267 19.1538C50.0897 18.87 50.048 18.6101 49.9991 18.3752C49.9502 18.1403 49.8859 17.9496 49.8072 17.8029C49.7273 17.6563 49.6271 17.5871 49.5055 17.5955C49.3958 17.6026 49.3291 17.6873 49.304 17.8471C49.2802 18.0068 49.2766 18.2 49.2945 18.4241C49.3124 18.6483 49.3374 18.8784 49.3672 19.1144C49.3982 19.3505 49.4125 19.5413 49.4125 19.6879C49.4125 19.8703 49.3911 20.0921 49.3482 20.3508C49.3052 20.6095 49.2206 20.8635 49.0918 21.1091C48.9631 21.3559 48.7771 21.5729 48.5338 21.7601C48.2894 21.9472 47.9723 22.0545 47.5824 22.082C47.2045 22.1082 46.8384 22.0295 46.4843 21.8459C46.1302 21.6623 45.887 21.3869 45.7523 21.0173C45.6056 20.6131 45.484 20.1815 45.3863 19.7249C45.2885 19.2682 45.2098 18.7973 45.1478 18.3144C45.087 17.8304 45.0441 17.3523 45.0202 16.8777C44.9952 16.4032 44.9833 15.9466 44.9833 15.5078L44.9809 15.509ZM49.9037 12.7561C49.6593 12.7728 49.4614 12.8813 49.3088 13.0804C49.1562 13.2795 49.0799 13.4715 49.0799 13.6539C49.0799 13.9341 49.1598 14.1427 49.3183 14.2774C49.4769 14.4133 49.6665 14.473 49.8859 14.4586C50.1172 14.4431 50.3163 14.3657 50.4808 14.2262C50.6453 14.0867 50.7276 13.822 50.7276 13.4309C50.7276 13.2962 50.6966 13.1829 50.6358 13.0899C50.575 12.9969 50.5046 12.9254 50.4248 12.8753C50.3461 12.8253 50.2567 12.7919 50.1589 12.774C50.0611 12.7561 49.9765 12.7501 49.9026 12.7549L49.9037 12.7561ZM57.595 18.6149C57.6069 18.9189 57.7536 19.0953 58.0338 19.143C58.3139 19.1907 58.6561 19.2015 59.0579 19.1728C59.4001 19.149 59.759 19.1252 60.1381 19.0989C60.5161 19.0727 60.8606 19.0977 61.1718 19.174C61.483 19.2503 61.7417 19.397 61.9492 19.6152C62.1566 19.8322 62.2603 20.1791 62.2603 20.6548C62.2603 22.1917 61.0645 23.0429 58.674 23.2063C57.8072 23.2659 57.0728 23.2063 56.4695 23.0286C55.865 22.851 55.3774 22.5338 55.0054 22.0772C54.6334 21.6206 54.3652 21.0054 54.2006 20.2292C54.0361 19.4542 53.9538 18.498 53.9538 17.3642C53.9538 16.7537 53.9753 16.1433 54.0182 15.5293C54.0612 14.9165 54.1184 14.3454 54.1923 13.816C54.265 13.2867 54.3545 12.8169 54.4582 12.4068C54.5619 11.9966 54.6692 11.6914 54.7789 11.4887C54.9864 11.1334 55.3369 10.8378 55.8317 10.6017C56.3253 10.3668 56.8964 10.2261 57.5426 10.182C57.9086 10.157 58.3259 10.1617 58.7956 10.1963C59.2654 10.2309 59.7196 10.2857 60.1584 10.3585C60.5971 10.4324 60.9965 10.517 61.3566 10.6148C61.7167 10.7126 61.9694 10.8163 62.1161 10.9284C62.4094 11.1406 62.5548 11.5936 62.5548 12.2887C62.5548 12.9481 62.4177 13.4417 62.1435 13.7719C61.8693 14.1022 61.4389 14.287 60.8535 14.3275C60.4266 14.3573 59.9903 14.3287 59.5456 14.244C59.0996 14.1582 58.6645 14.1308 58.2376 14.1594C58.0421 14.1725 57.911 14.2035 57.8442 14.25C57.7774 14.2977 57.744 14.3764 57.744 14.4861C57.744 14.7174 57.8442 14.8724 58.0457 14.9499C58.2472 15.0274 58.4976 15.0774 58.7956 15.1001C59.0949 15.1227 59.418 15.1335 59.7649 15.1347C60.1131 15.1347 60.4362 15.1704 60.7354 15.242C61.0347 15.3135 61.2839 15.4446 61.4854 15.639C61.6869 15.8321 61.787 16.1242 61.787 16.5153C61.787 17.0399 61.607 17.4608 61.2469 17.7779C60.8868 18.095 60.3897 18.2763 59.7554 18.3192C59.5599 18.3323 59.3679 18.3371 59.1795 18.3311C58.99 18.3251 58.798 18.3299 58.6037 18.343C58.1768 18.3728 57.8406 18.4623 57.5974 18.6137L57.595 18.6149ZM64.7736 9.97933C65.8836 9.90302 66.8779 9.94475 67.7566 10.1033C68.6353 10.2631 69.3793 10.5683 69.9886 11.0202C70.599 11.472 71.0652 12.0896 71.3883 12.8729C71.7114 13.6563 71.8735 14.6327 71.8735 15.8047C71.8735 16.9266 71.715 17.9102 71.3978 18.7556C71.0807 19.6009 70.6205 20.3091 70.016 20.8814C69.4127 21.4536 68.6735 21.8972 67.802 22.2131C66.9292 22.5291 65.9384 22.7258 64.8285 22.8021C63.852 22.8689 63.1199 22.4492 62.6323 21.5443C62.1447 20.6381 61.9003 19.2945 61.9003 17.5132C61.9003 17.1472 61.9038 16.7287 61.9098 16.259C61.9158 15.7892 61.9372 15.3087 61.9742 14.8175C62.0111 14.3275 62.072 13.8375 62.1566 13.3498C62.2424 12.8622 62.3641 12.4115 62.5226 11.9978C62.7301 11.4351 63.0222 10.9665 63.4013 10.5921C63.7793 10.219 64.2371 10.0139 64.7736 9.97694V9.97933ZM66.5489 14.1391C66.3903 14.1499 66.2627 14.2226 66.165 14.3573C66.0672 14.492 65.9945 14.6613 65.9456 14.8664C65.8967 15.0715 65.8669 15.3052 65.8538 15.5686C65.8419 15.8321 65.8359 16.104 65.8359 16.3841C65.8359 16.9695 65.8908 17.4631 66.0005 17.8637C66.1101 18.2643 66.2806 18.4813 66.5131 18.5147C66.562 18.5231 66.6347 18.5243 66.7325 18.5183C66.9638 18.5028 67.1534 18.4158 67.3 18.2596C67.4467 18.1034 67.5623 17.9126 67.6482 17.6861C67.734 17.4608 67.7948 17.2187 67.8306 16.96C67.8675 16.7013 67.8854 16.4628 67.8854 16.2423C67.8854 15.9621 67.858 15.6926 67.8031 15.4339C67.7483 15.1752 67.666 14.9487 67.5563 14.7555C67.4467 14.5624 67.306 14.4062 67.1355 14.2905C66.965 14.1737 66.7695 14.1236 66.5501 14.1391H66.5489Z" fill="#E60023"/>
<path fill-rule="evenodd" clip-rule="evenodd" d="M14.8715 31.2373C14.1872 31.7416 13.5374 31.7309 11.5249 33.2403C8.78505 35.2946 6.2813 41.4228 9.74244 44.1662C12.3511 46.2336 15.6143 44.6634 15.842 41.3238C16.0912 37.6755 16.8042 35.4317 18.9491 33.6254C23.8457 34.4529 26.7155 36.6573 34.9969 35.0275C37.4577 34.5435 39.6491 33.6934 41.546 32.5727C42.7347 31.8704 43.2295 31.4746 44.2011 30.6245C45.031 29.8984 45.8417 29.2021 46.3782 28.1076C43.3308 29.3094 43.7421 29.8412 38.5677 31.3375C31.0004 33.5253 22.5175 32.6788 15.3938 29.3059C14.0835 28.6847 12.9532 27.9002 11.7562 27.316C11.9755 27.924 12.6969 28.8206 13.1595 29.3476L14.7666 31.099C14.7905 31.13 14.8393 31.1908 14.8727 31.2385L14.8715 31.2373ZM12.3571 37.4526C14.4054 35.0657 13.1285 35.2075 16.5371 32.333C14.4507 30.4564 12.4763 35.167 12.3571 37.4526Z" fill="#E60023"/>
<path fill-rule="evenodd" clip-rule="evenodd" d="M6.94417 28.5667C6.16562 27.558 4.98886 27.6856 4.15547 25.8543C3.77991 25.028 3.66784 24.4772 3.0884 24.0766C0.0230982 21.9591 -1.95844 29.6659 6.94417 28.5667Z" fill="#E60023"/>
<path fill-rule="evenodd" clip-rule="evenodd" d="M6.33977 33.0949L7.63695 31.6689C1.32989 29.4477 4.10189 35.6427 6.33977 33.0949Z" fill="#E60023"/>
<path fill-rule="evenodd" clip-rule="evenodd" d="M72.2109 9.02074C73.1778 9.99959 75.1605 12.7859 74.866 13.9805C74.0791 12.5725 73.83 11.2777 72.5888 9.72894C72.2252 9.27588 72.2454 9.36292 72.2109 9.02074ZM78.9483 15.3719C80.5543 16.1421 82.8387 15.3993 83.6411 13.4428C83.8032 13.047 83.7877 12.9433 83.833 12.613C83.8783 12.2887 83.839 12.0539 83.9403 11.7248C85.0169 14.3931 81.092 17.1043 78.9471 15.3719H78.9483ZM72.5459 6.39896L70.1101 8.4413C74.1543 13.4571 73.2815 14.374 74.2151 16.0825C75.1999 16.0551 76.3313 15.3147 77.3734 15.1561C79.0378 16.842 81.2768 17.2843 83.1868 15.7201C85.0348 14.2059 85.0646 11.9573 83.839 9.91851C84.757 8.69168 84.5663 6.36915 83.3537 5.05051C82.7361 4.37927 81.7382 3.87137 80.9883 3.77122C79.7162 3.60073 80.7022 2.96883 78.9984 1.75391C77.5689 0.735724 75.7698 0.552116 74.1602 1.6478C71.8723 3.20728 72.435 5.10178 72.5447 6.39896H72.5459Z" fill="#E60023"/>
<path fill-rule="evenodd" clip-rule="evenodd" d="M78.9484 15.3731C81.092 17.1055 85.017 14.3955 83.9416 11.726C83.8402 12.055 83.8796 12.2887 83.8343 12.6142C83.7878 12.9445 83.8032 13.0482 83.6423 13.444C82.8399 15.4017 80.5555 16.1445 78.9496 15.3731H78.9484Z" fill="white"/>
<path fill-rule="evenodd" clip-rule="evenodd" d="M72.2109 9.02075C72.2443 9.36412 72.2252 9.2759 72.5888 9.72895C73.83 11.2777 74.0792 12.5725 74.866 13.9806C75.1605 12.7859 73.1778 9.9996 72.2109 9.02075Z" fill="white"/>
</g>
<defs>
<clipPath id="clip0_94_2672">
<rect width="84.1808" height="44.1923" fill="white" transform="translate(0.5 0.903839)"/>
</clipPath>
</defs>
</svg>
