<svg width="19" height="18" viewBox="0 0 19 18" fill="none" xmlns="http://www.w3.org/2000/svg">
<g clip-path="url(#clip0_94_3328)">
<path fill-rule="evenodd" clip-rule="evenodd" d="M15.9093 6.04649C15.6016 4.82409 14.5396 3.95326 13.3065 3.85626C13.2443 3.66096 13.1732 3.46774 13.0918 3.27928C12.8268 2.66604 12.4387 2.0683 11.8668 1.62212C11.2842 1.16762 10.5517 0.902802 9.66664 0.902802C8.78163 0.902802 8.04907 1.16762 7.46651 1.62212C6.89462 2.0683 6.50644 2.66604 6.24153 3.27927C6.16011 3.46774 6.08893 3.66096 6.02678 3.85626C4.79369 3.95326 3.73163 4.82408 3.42395 6.04649C2.6901 8.96213 2.33058 11.1077 2.30681 12.6821C2.2832 14.2451 2.58831 15.3947 3.35615 16.1389C4.11389 16.8733 5.16011 17.049 6.18298 17.0879C6.70707 17.1079 7.27247 17.0922 7.84934 17.0731L8.06081 17.0659C8.57881 17.0484 9.1115 17.0303 9.66664 17.0303C10.2218 17.0303 10.7543 17.0484 11.2723 17.0659L11.4839 17.0731C12.0608 17.0922 12.6262 17.1079 13.1503 17.0879C14.1732 17.049 15.2194 16.8733 15.9771 16.1389C16.745 15.3947 17.0501 14.2451 17.0265 12.6821C17.0027 11.1077 16.6432 8.96213 15.9093 6.04649ZM7.09025 6.79168C7.09025 6.36609 7.11653 5.84892 7.19751 5.31946H12.1358C12.2167 5.84892 12.243 6.36609 12.243 6.79168C12.243 7.19822 12.5726 7.52779 12.9791 7.52779C13.3857 7.52779 13.7152 7.19822 13.7152 6.79168C13.7152 6.41289 13.6972 5.94144 13.6365 5.43163C14.0481 5.60346 14.3692 5.95937 14.4816 6.40583C15.2076 9.29037 15.5333 11.3034 15.5544 12.7043C15.5757 14.1165 15.2856 14.7589 14.9525 15.0817C14.6094 15.4143 14.0491 15.5805 13.0943 15.6168C12.6296 15.6344 12.1135 15.621 11.5329 15.6017L11.3235 15.5946C10.8074 15.5771 10.2485 15.5581 9.66664 15.5581C9.08468 15.5581 8.52591 15.5771 8.00977 15.5946L7.80042 15.6017C7.21978 15.621 6.70363 15.6344 6.23892 15.6168C5.28421 15.5805 4.72391 15.4143 4.38075 15.0817C4.04769 14.7589 3.75753 14.1165 3.77886 12.7043C3.80001 11.3034 4.12562 9.29037 4.85164 6.40584C4.96402 5.95937 5.28517 5.60345 5.69674 5.43162C5.63605 5.94144 5.61803 6.41289 5.61803 6.79167C5.61803 7.19821 5.94759 7.52778 6.35414 7.52779C6.76068 7.52779 7.09025 7.19822 7.09025 6.79168ZM10.9612 2.78287C11.2799 3.03156 11.5355 3.39438 11.7334 3.84724H7.59993C7.79781 3.39438 8.05333 3.03156 8.3721 2.78287C8.68391 2.5396 9.09416 2.37502 9.66664 2.37502C10.2391 2.37502 10.6494 2.5396 10.9612 2.78287Z" fill="#101928"/>
</g>
<defs>
<clipPath id="clip0_94_3328">
<rect width="17.6666" height="17.6666" fill="white" transform="translate(0.833374 0.166687)"/>
</clipPath>
</defs>
</svg>
