<svg width="89" height="18" viewBox="0 0 89 18" fill="none" xmlns="http://www.w3.org/2000/svg">
<path d="M7.40495 2.63416L9.43825 6.75339L13.9852 7.41799L10.6951 10.6226L11.4715 15.1498L7.40495 13.0112L3.33836 15.1498L4.11483 10.6226L0.824707 7.41799L5.37166 6.75339L7.40495 2.63416Z" fill="#FF9D01" stroke="#FF9D01" stroke-width="1.31605" stroke-linecap="round" stroke-linejoin="round"/>
<path d="M25.8296 2.63416L27.8629 6.75339L32.4099 7.41799L29.1198 10.6226L29.8962 15.1498L25.8296 13.0112L21.763 15.1498L22.5395 10.6226L19.2494 7.41799L23.7963 6.75339L25.8296 2.63416Z" fill="#FF9D01" stroke="#FF9D01" stroke-width="1.31605" stroke-linecap="round" stroke-linejoin="round"/>
<path d="M44.2543 2.63416L46.2876 6.75339L50.8346 7.41799L47.5444 10.6226L48.3209 15.1498L44.2543 13.0112L40.1877 15.1498L40.9642 10.6226L37.6741 7.41799L42.221 6.75339L44.2543 2.63416Z" fill="#FF9D01" stroke="#FF9D01" stroke-width="1.31605" stroke-linecap="round" stroke-linejoin="round"/>
<path d="M62.679 2.63416L64.7123 6.75339L69.2592 7.41799L65.9691 10.6226L66.7456 15.1498L62.679 13.0112L58.6124 15.1498L59.3889 10.6226L56.0988 7.41799L60.6457 6.75339L62.679 2.63416Z" fill="#FF9D01" stroke="#FF9D01" stroke-width="1.31605" stroke-linecap="round" stroke-linejoin="round"/>
<path d="M81.1037 2.63416L83.137 6.75339L87.6839 7.41799L84.3938 10.6226L85.1703 15.1498L81.1037 13.0112L77.0371 15.1498L77.8136 10.6226L74.5234 7.41799L79.0704 6.75339L81.1037 2.63416Z" fill="#FF9D01" stroke="#FF9D01" stroke-width="1.31605" stroke-linecap="round" stroke-linejoin="round"/>
</svg>
