<svg width="18" height="17" viewBox="0 0 18 17" fill="none" xmlns="http://www.w3.org/2000/svg">
<path fill-rule="evenodd" clip-rule="evenodd" d="M8.18003 1.67273C4.75226 1.67273 1.97351 4.45148 1.97351 7.87925C1.97351 11.307 4.75226 14.0858 8.18003 14.0858C9.64547 14.0858 10.9923 13.5779 12.0541 12.7285L14.5885 15.263C14.8578 15.5323 15.2945 15.5323 15.5638 15.263C15.8331 14.9937 15.8331 14.5571 15.5638 14.2878L13.0293 11.7533C13.8787 10.6915 14.3866 9.34469 14.3866 7.87925C14.3866 4.45148 11.6078 1.67273 8.18003 1.67273ZM3.35274 7.87925C3.35274 5.21321 5.51399 3.05196 8.18003 3.05196C10.8461 3.05196 13.0073 5.21321 13.0073 7.87925C13.0073 10.5453 10.8461 12.7065 8.18003 12.7065C5.51399 12.7065 3.35274 10.5453 3.35274 7.87925Z" fill="#667185"/>
</svg>
