<svg width="27" height="27" viewBox="0 0 27 27" fill="none" xmlns="http://www.w3.org/2000/svg">
<path fill-rule="evenodd" clip-rule="evenodd" d="M13.5941 2.31787L6.77785 2.74388C5.15453 2.84534 3.72229 3.84103 3.06171 5.32733L2.46605 6.66757C1.82355 8.11321 2.0136 9.79334 2.96279 11.0589L3.24462 11.4347L3.63288 19.9764C3.73884 22.3074 5.65952 24.1428 7.99294 24.1428H19.1952C21.5286 24.1428 23.4493 22.3075 23.5552 19.9764L23.9364 11.5909C24.9744 10.6205 25.357 9.10677 24.8587 7.73644L24.0812 5.59848C23.488 3.96703 21.9843 2.84226 20.2517 2.73397L13.5941 2.31787ZM5.81291 19.8773L5.48249 12.608C6.41715 12.7181 7.38188 12.5011 8.19804 11.957L8.31137 11.8815C8.92759 11.4706 9.71669 11.4215 10.3791 11.7527L11.6422 12.3843C12.8709 12.9986 14.3172 12.9986 15.546 12.3843L16.809 11.7527C17.4714 11.4215 18.2605 11.4706 18.8767 11.8815L18.9901 11.957C19.8062 12.5011 20.771 12.7181 21.7056 12.608L21.3752 19.8773C21.3222 21.0429 20.3619 21.9605 19.1952 21.9605H16.9622L17.1827 19.3139C17.3577 17.2143 15.7009 15.4137 13.5941 15.4137C11.4873 15.4137 9.83041 17.2143 10.0054 19.3139L10.2259 21.9605H7.99294C6.82624 21.9605 5.86589 21.0429 5.81291 19.8773ZM20.2006 10.1412C20.8252 10.5576 21.6389 10.5576 22.2635 10.1412C22.8057 9.77981 23.0305 9.09458 22.8078 8.48222L22.0303 6.34426C21.7337 5.52853 20.9819 4.96615 20.1156 4.91201L13.5941 4.50441L6.91398 4.92192C6.10232 4.97265 5.3862 5.47049 5.05591 6.21364L4.46025 7.55388C4.13899 8.2767 4.23402 9.11677 4.70861 9.74956L5.06681 10.2272C5.66909 10.5553 6.40934 10.5267 6.98753 10.1412L7.10086 10.0657C8.36868 9.22048 9.99219 9.1194 11.3551 9.80083L12.6181 10.4324C13.2325 10.7395 13.9556 10.7395 14.57 10.4324L15.8331 9.80083C17.1959 9.1194 18.8194 9.22048 20.0873 10.0657L20.2006 10.1412ZM15.008 19.1326L14.7723 21.9605H12.4158L12.1801 19.1326C12.1112 18.3054 12.764 17.596 13.5941 17.596C14.4241 17.596 15.0769 18.3054 15.008 19.1326Z" fill="#E60023"/>
</svg>
