<svg width="21" height="20" viewBox="0 0 21 20" fill="none" xmlns="http://www.w3.org/2000/svg">
<path fill-rule="evenodd" clip-rule="evenodd" d="M10.4999 1.66666C8.19873 1.66666 6.33325 3.53214 6.33325 5.83332C6.33325 8.13451 8.19873 9.99999 10.4999 9.99999C12.8011 9.99999 14.6666 8.13451 14.6666 5.83332C14.6666 3.53214 12.8011 1.66666 10.4999 1.66666ZM7.99992 5.83332C7.99992 4.45261 9.11921 3.33332 10.4999 3.33332C11.8806 3.33332 12.9999 4.45261 12.9999 5.83332C12.9999 7.21404 11.8806 8.33332 10.4999 8.33332C9.11921 8.33332 7.99992 7.21404 7.99992 5.83332Z" fill="#101928"/>
<path fill-rule="evenodd" clip-rule="evenodd" d="M10.4999 19.1667C9.21616 19.1667 7.3581 18.8752 5.96278 18.2645C5.27778 17.9647 4.58113 17.5356 4.17638 16.9145C3.96352 16.5878 3.82895 16.2031 3.83336 15.7735C3.83773 15.3479 3.97778 14.9401 4.21318 14.5607C5.35435 12.7213 7.68891 10.8333 10.4999 10.8333C13.3109 10.8333 15.6455 12.7213 16.7867 14.5607C17.0221 14.9401 17.1621 15.3479 17.1665 15.7735C17.1709 16.2031 17.0363 16.5878 16.8235 16.9145C16.4187 17.5356 15.7221 17.9647 15.0371 18.2645C13.6417 18.8752 11.7837 19.1667 10.4999 19.1667ZM5.62941 15.4393C5.51968 15.6162 5.50056 15.7298 5.49994 15.7906C5.49935 15.8475 5.51397 15.9144 5.57272 16.0045C5.7112 16.217 6.04748 16.4822 6.63102 16.7376C7.77279 17.2374 9.39428 17.5 10.4999 17.5C11.6055 17.5 13.227 17.2374 14.3688 16.7376C14.9524 16.4822 15.2886 16.217 15.4271 16.0045C15.4859 15.9144 15.5005 15.8475 15.4999 15.7906C15.4993 15.7298 15.4802 15.6162 15.3704 15.4393C14.4353 13.9321 12.5702 12.5 10.4999 12.5C8.42964 12.5 6.56454 13.9321 5.62941 15.4393Z" fill="#101928"/>
</svg>
